<svg t="1684641872417" class="icon" viewBox="0 0 1024 1024" version="1.1" xmlns="http://www.w3.org/2000/svg" p-id="4017" width="200" height="200"><path d="M992.109714 552.777143l28.397715 18.925714c-9.216 13.586286-31.268571 36.882286-69.394286 36.882286-47.36 0-82.596571-36.626286-82.596572-83.218286 0-49.590857 35.620571-83.236571 78.628572-83.236571 43.209143 0 64.402286 34.377143 71.241143 52.955428l3.748571 9.472-111.378286 46.08c8.466286 16.713143 21.668571 25.179429 40.356572 25.179429 18.688 0 31.634286-9.216 40.996571-23.04z m-87.350857-30.025143l74.386286-30.902857c-4.114286-10.349714-16.310857-17.700571-30.902857-17.700572-18.56 0-44.342857 16.457143-43.483429 48.603429z" p-id="4018" fill="#e6e6e6"></path><path d="M814.811429 357.284571h35.876571v243.712H814.811429z" p-id="4019" fill="#e6e6e6"></path><path d="M758.253714 448.621714h34.633143v148.004572c0 61.44-36.260571 86.710857-79.122286 86.710857-40.356571 0-64.658286-27.154286-73.746285-49.206857l31.762285-13.202286c5.741714 13.568 19.565714 29.641143 41.984 29.641143 27.538286 0 44.489143-17.060571 44.489143-48.950857v-11.958857h-1.243428c-8.228571 9.965714-23.936 18.925714-43.867429 18.925714-41.6 0-79.725714-36.260571-79.725714-82.980572 0-46.957714 38.125714-83.584 79.725714-83.584 19.821714 0 35.638857 8.832 43.867429 18.56h1.243428v-11.958857z m2.486857 76.982857c0-29.403429-19.565714-50.834286-44.470857-50.834285-25.179429 0-46.354286 21.430857-46.354285 50.834285 0 29.037714 21.174857 50.102857 46.354285 50.102858 24.905143 0.109714 44.470857-21.065143 44.470857-50.102858z m-324.315428-0.621714c0 47.981714-37.376 83.236571-83.218286 83.236572s-83.218286-35.382857-83.218286-83.236572c0-48.201143 37.376-83.346286 83.218286-83.346286s83.218286 35.145143 83.218286 83.346286z m-36.388572 0c0-29.897143-21.668571-50.468571-46.829714-50.468571s-46.848 20.571429-46.848 50.468571c0 29.659429 21.686857 50.468571 46.848 50.468572s46.848-20.809143 46.848-50.468572z m218.166858 0.365714c0 47.981714-37.376 83.236571-83.218286 83.236572s-83.236571-35.254857-83.236572-83.218286c0-48.219429 37.394286-83.236571 83.236572-83.236571 45.842286 0 83.218286 34.889143 83.218286 83.236571z m-36.498286 0c0-29.878857-21.686857-50.450286-46.848-50.450285s-46.848 20.571429-46.848 50.468571c0 29.641143 21.686857 50.468571 46.848 50.468572 25.289143 0 46.848-20.937143 46.848-50.468572z" p-id="4020" fill="#e6e6e6"></path><path d="M133.174857 572.086857c-52.205714 0-93.074286-42.112-93.074286-94.317714 0-52.205714 40.868571-94.317714 93.074286-94.317714 28.16 0 48.713143 11.099429 63.926857 25.289142l25.051429-25.051428c-21.211429-20.297143-49.481143-35.748571-88.978286-35.748572-71.497143 0-131.693714 58.313143-131.693714 129.828572 0 71.515429 60.178286 129.828571 131.693714 129.828571 38.619429 0 67.785143-12.708571 90.587429-36.388571 23.405714-23.405714 30.646857-56.32 30.646857-82.980572 0-8.338286-1.005714-16.932571-2.121143-23.296H133.174857v34.633143h84.845714c-2.486857 21.686857-9.325714 36.516571-19.437714 46.610286-12.196571 12.324571-31.506286 25.910857-65.408 25.910857z" p-id="4021" fill="#e6e6e6"></path></svg>
